# Blender 4.4.0
# www.blender.org
mtllib Cone.mtl
o Cone
v 3.790456 -0.009532 -4.301892
v 4.066571 -0.009532 -4.274697
v 4.332075 -0.009532 -4.194158
v 4.576765 -0.009532 -4.063368
v 4.791237 -0.009532 -3.887355
v 4.967250 -0.009532 -3.672883
v 5.098039 -0.009532 -3.428193
v 5.178579 -0.009532 -3.162689
v 5.205774 -0.009532 -2.886574
v 5.178579 -0.009532 -2.610459
v 5.098039 -0.009532 -2.344955
v 4.967250 -0.009532 -2.100266
v 4.791237 -0.009532 -1.885793
v 4.576765 -0.009532 -1.709780
v 4.332075 -0.009532 -1.578991
v 4.066571 -0.009532 -1.498451
v 3.790456 -0.009532 -1.471256
v 3.514341 -0.009532 -1.498451
v 3.248837 -0.009532 -1.578991
v 3.004147 -0.009532 -1.709780
v 2.789675 -0.009532 -1.885793
v 2.613662 -0.009532 -2.100266
v 2.482872 -0.009532 -2.344955
v 2.402333 -0.009532 -2.610459
v 2.375138 -0.009532 -2.886574
v 2.402333 -0.009532 -3.162689
v 2.482872 -0.009532 -3.428193
v 2.613662 -0.009532 -3.672883
v 2.789675 -0.009532 -3.887355
v 3.004147 -0.009532 -4.063368
v 3.248837 -0.009532 -4.194158
v 3.514341 -0.009532 -4.274697
v 3.790456 2.821104 -2.886574
v 3.830087 -0.010988 -4.300488
v 3.869694 -0.011959 -4.298254
v 3.909255 -0.012444 -4.295191
v 3.948747 -0.012444 -4.291302
v 3.988145 -0.011959 -4.286588
v 4.027427 -0.010988 -4.281052
v 4.105166 -0.010988 -4.265589
v 4.143577 -0.011959 -4.255671
v 4.181780 -0.012444 -4.244948
v 4.219754 -0.012444 -4.233429
v 4.257476 -0.011959 -4.221120
v 4.294923 -0.010988 -4.208026
v 4.368152 -0.010988 -4.177694
v 4.403889 -0.011959 -4.160473
v 4.439267 -0.012444 -4.142504
v 4.474264 -0.012444 -4.123798
v 4.508859 -0.011959 -4.104365
v 4.543033 -0.010988 -4.084218
v 4.608936 -0.010988 -4.040183
v 4.640627 -0.011959 -4.016320
v 4.671820 -0.012444 -3.991795
v 4.702495 -0.012444 -3.966621
v 4.732634 -0.011959 -3.940813
v 4.762221 -0.010988 -3.914386
v 4.818267 -0.010988 -3.858339
v 4.844694 -0.011959 -3.828753
v 4.870502 -0.012444 -3.798613
v 4.895677 -0.012444 -3.767938
v 4.920202 -0.011959 -3.736746
v 4.944065 -0.010988 -3.705055
v 4.988100 -0.010988 -3.639151
v 5.008247 -0.011959 -3.604977
v 5.027680 -0.012444 -3.570382
v 5.046386 -0.012444 -3.535385
v 5.064355 -0.011959 -3.500007
v 5.081576 -0.010988 -3.464270
v 5.111908 -0.010988 -3.391041
v 5.125002 -0.011959 -3.353594
v 5.137311 -0.012444 -3.315872
v 5.148830 -0.012444 -3.277898
v 5.159552 -0.011959 -3.239695
v 5.169470 -0.010988 -3.201284
v 5.184934 -0.010988 -3.123546
v 5.190470 -0.011959 -3.084263
v 5.195183 -0.012444 -3.044865
v 5.199073 -0.012444 -3.005373
v 5.202136 -0.011959 -2.965812
v 5.204370 -0.010988 -2.926205
v 5.204370 -0.010988 -2.846943
v 5.202136 -0.011959 -2.807336
v 5.199073 -0.012444 -2.767775
v 5.195184 -0.012444 -2.728283
v 5.190470 -0.011959 -2.688885
v 5.184934 -0.010988 -2.649602
v 5.169470 -0.010988 -2.571864
v 5.159552 -0.011959 -2.533453
v 5.148830 -0.012444 -2.495250
v 5.137311 -0.012444 -2.457276
v 5.125001 -0.011959 -2.419554
v 5.111908 -0.010988 -2.382107
v 5.081576 -0.010988 -2.308878
v 5.064355 -0.011959 -2.273140
v 5.046386 -0.012444 -2.237763
v 5.027680 -0.012444 -2.202766
v 5.008247 -0.011959 -2.168171
v 4.988100 -0.010988 -2.133997
v 4.944065 -0.010988 -2.068094
v 4.920202 -0.011959 -2.036402
v 4.895677 -0.012444 -2.005210
v 4.870502 -0.012444 -1.974535
v 4.844694 -0.011959 -1.944395
v 4.818267 -0.010988 -1.914809
v 4.762221 -0.010988 -1.858763
v 4.732635 -0.011959 -1.832335
v 4.702495 -0.012444 -1.806527
v 4.671820 -0.012444 -1.781353
v 4.640627 -0.011959 -1.756828
v 4.608936 -0.010988 -1.732965
v 4.543033 -0.010988 -1.688930
v 4.508859 -0.011959 -1.668782
v 4.474263 -0.012444 -1.649350
v 4.439267 -0.012444 -1.630644
v 4.403889 -0.011959 -1.612675
v 4.368152 -0.010988 -1.595454
v 4.294923 -0.010988 -1.565122
v 4.257476 -0.011959 -1.552029
v 4.219754 -0.012444 -1.539719
v 4.181780 -0.012444 -1.528199
v 4.143577 -0.011959 -1.517478
v 4.105166 -0.010988 -1.507559
v 4.027428 -0.010988 -1.492096
v 3.988145 -0.011959 -1.486560
v 3.948747 -0.012444 -1.481847
v 3.909255 -0.012444 -1.477957
v 3.869694 -0.011959 -1.474894
v 3.830087 -0.010988 -1.472660
v 3.750825 -0.010988 -1.472660
v 3.711217 -0.011959 -1.474894
v 3.671656 -0.012444 -1.477957
v 3.632165 -0.012444 -1.481846
v 3.592767 -0.011959 -1.486560
v 3.553484 -0.010988 -1.492096
v 3.475745 -0.010988 -1.507559
v 3.437335 -0.011959 -1.517477
v 3.399132 -0.012444 -1.528200
v 3.361158 -0.012444 -1.539719
v 3.323436 -0.011959 -1.552028
v 3.285988 -0.010988 -1.565122
v 3.212760 -0.010988 -1.595454
v 3.177022 -0.011959 -1.612675
v 3.141645 -0.012444 -1.630644
v 3.106648 -0.012444 -1.649350
v 3.072053 -0.011959 -1.668783
v 3.037879 -0.010988 -1.688930
v 2.971975 -0.010988 -1.732965
v 2.940284 -0.011959 -1.756827
v 2.909092 -0.012444 -1.781353
v 2.878417 -0.012444 -1.806527
v 2.848278 -0.011959 -1.832335
v 2.818691 -0.010988 -1.858763
v 2.762644 -0.010988 -1.914809
v 2.736217 -0.011959 -1.944396
v 2.710409 -0.012444 -1.974535
v 2.685235 -0.012444 -2.005210
v 2.660709 -0.011959 -2.036402
v 2.636847 -0.010988 -2.068094
v 2.592812 -0.010988 -2.133997
v 2.572664 -0.011959 -2.168171
v 2.553232 -0.012444 -2.202766
v 2.534526 -0.012444 -2.237763
v 2.516557 -0.011959 -2.273141
v 2.499335 -0.010988 -2.308878
v 2.469003 -0.010988 -2.382107
v 2.455910 -0.011959 -2.419554
v 2.443601 -0.012444 -2.457276
v 2.432081 -0.012444 -2.495250
v 2.421360 -0.011959 -2.533453
v 2.411441 -0.010988 -2.571864
v 2.395978 -0.010988 -2.649602
v 2.390442 -0.011959 -2.688885
v 2.385728 -0.012444 -2.728283
v 2.381839 -0.012444 -2.767775
v 2.378776 -0.011959 -2.807336
v 2.376542 -0.010988 -2.846943
v 2.376542 -0.010988 -2.926205
v 2.378776 -0.011959 -2.965812
v 2.381839 -0.012444 -3.005373
v 2.385728 -0.012444 -3.044865
v 2.390442 -0.011959 -3.084263
v 2.395978 -0.010988 -3.123546
v 2.411441 -0.010988 -3.201284
v 2.421360 -0.011959 -3.239695
v 2.432081 -0.012444 -3.277898
v 2.443601 -0.012444 -3.315872
v 2.455910 -0.011959 -3.353594
v 2.469004 -0.010988 -3.391041
v 2.499335 -0.010988 -3.464270
v 2.516557 -0.011959 -3.500008
v 2.534526 -0.012444 -3.535385
v 2.553232 -0.012444 -3.570382
v 2.572664 -0.011959 -3.604977
v 2.592812 -0.010988 -3.639151
v 2.636847 -0.010988 -3.705055
v 2.660709 -0.011959 -3.736746
v 2.685235 -0.012444 -3.767938
v 2.710409 -0.012444 -3.798613
v 2.736217 -0.011959 -3.828753
v 2.762644 -0.010988 -3.858339
v 2.818691 -0.010988 -3.914386
v 2.848277 -0.011959 -3.940813
v 2.878417 -0.012444 -3.966621
v 2.909092 -0.012444 -3.991795
v 2.940284 -0.011959 -4.016320
v 2.971975 -0.010988 -4.040183
v 3.037879 -0.010988 -4.084219
v 3.072053 -0.011959 -4.104365
v 3.106648 -0.012444 -4.123798
v 3.141645 -0.012444 -4.142504
v 3.177022 -0.011959 -4.160473
v 3.212760 -0.010988 -4.177694
v 3.285988 -0.010988 -4.208026
v 3.323436 -0.011959 -4.221120
v 3.361158 -0.012444 -4.233429
v 3.399131 -0.012444 -4.244948
v 3.437335 -0.011959 -4.255671
v 3.475745 -0.010988 -4.265589
v 3.553484 -0.010988 -4.281052
v 3.592767 -0.011959 -4.286588
v 3.632165 -0.012444 -4.291301
v 3.671656 -0.012444 -4.295191
v 3.711217 -0.011959 -4.298254
v 3.750825 -0.010988 -4.300488
v 4.047040 -0.010398 -4.278099
v 4.313583 -0.010398 -4.201303
v 4.560023 -0.010398 -4.073985
v 4.776888 -0.010398 -3.901034
v 4.955845 -0.010398 -3.689098
v 5.090017 -0.010398 -3.446321
v 5.174248 -0.010398 -3.182034
v 5.205300 -0.010398 -2.906393
v 5.181981 -0.010398 -2.629989
v 5.105186 -0.010398 -2.363446
v 4.977866 -0.010398 -2.117007
v 4.804915 -0.010398 -1.900142
v 4.592979 -0.010398 -1.721184
v 4.350203 -0.010398 -1.587013
v 4.085916 -0.010398 -1.502782
v 3.810274 -0.010398 -1.471730
v 3.533871 -0.010398 -1.495049
v 3.267328 -0.010398 -1.571844
v 3.020889 -0.010398 -1.699164
v 2.804024 -0.010398 -1.872114
v 2.625066 -0.010398 -2.084050
v 2.490894 -0.010398 -2.326827
v 2.406664 -0.010398 -2.591114
v 2.375612 -0.010398 -2.866755
v 2.398931 -0.010398 -3.143159
v 2.475726 -0.010398 -3.409702
v 2.603045 -0.010398 -3.656141
v 2.775996 -0.010398 -3.873006
v 2.987932 -0.010398 -4.051964
v 3.230709 -0.010398 -4.186135
v 3.494996 -0.010398 -4.270366
v 3.770637 -0.010398 -4.301418
v 3.810274 -0.010398 -4.301418
v 3.849893 -0.011506 -4.299424
v 3.889480 -0.012248 -4.296798
v 3.929001 -0.012444 -4.293246
v 3.968455 -0.012248 -4.289020
v 4.007794 -0.011506 -4.283872
v 4.085916 -0.010398 -4.270366
v 4.124384 -0.011506 -4.260681
v 4.162698 -0.012248 -4.250382
v 4.200767 -0.012444 -4.239189
v 4.238639 -0.012248 -4.227346
v 4.276217 -0.011506 -4.214622
v 4.350203 -0.010398 -4.186135
v 4.386043 -0.011506 -4.169132
v 4.421612 -0.012248 -4.151556
v 4.456765 -0.012444 -4.133151
v 4.491599 -0.012248 -4.114148
v 4.525973 -0.011506 -4.094337
v 4.592979 -0.010398 -4.051964
v 4.624813 -0.011506 -4.028295
v 4.656270 -0.012248 -4.004118
v 4.687157 -0.012444 -3.979208
v 4.717614 -0.012248 -3.953774
v 4.747464 -0.011506 -3.927638
v 4.804915 -0.010398 -3.873006
v 4.831520 -0.011506 -3.843582
v 4.857656 -0.012248 -3.813733
v 4.883090 -0.012444 -3.783276
v 4.908000 -0.012248 -3.752388
v 4.932177 -0.011506 -3.720932
v 4.977866 -0.010398 -3.656141
v 4.998219 -0.011506 -3.622092
v 5.018029 -0.012248 -3.587717
v 5.037033 -0.012444 -3.552883
v 5.055438 -0.012248 -3.517730
v 5.073014 -0.011506 -3.482161
v 5.105186 -0.010398 -3.409702
v 5.118505 -0.011506 -3.372336
v 5.131228 -0.012248 -3.334757
v 5.143071 -0.012444 -3.296885
v 5.154264 -0.012248 -3.258817
v 5.164563 -0.011506 -3.220502
v 5.181981 -0.010398 -3.143159
v 5.187754 -0.011506 -3.103913
v 5.192902 -0.012248 -3.064574
v 5.197128 -0.012444 -3.025119
v 5.200680 -0.012248 -2.985598
v 5.203306 -0.011506 -2.946011
v 5.205300 -0.010398 -2.866755
v 5.203306 -0.011506 -2.827137
v 5.200680 -0.012248 -2.787550
v 5.197128 -0.012444 -2.748029
v 5.192902 -0.012249 -2.708574
v 5.187754 -0.011506 -2.669235
v 5.174248 -0.010398 -2.591114
v 5.164563 -0.011506 -2.552646
v 5.154264 -0.012248 -2.514331
v 5.143071 -0.012444 -2.476263
v 5.131228 -0.012248 -2.438391
v 5.118505 -0.011506 -2.400812
v 5.090017 -0.010398 -2.326827
v 5.073014 -0.011506 -2.290987
v 5.055438 -0.012248 -2.255418
v 5.037033 -0.012444 -2.220265
v 5.018029 -0.012248 -2.185431
v 4.998219 -0.011506 -2.151057
v 4.955845 -0.010398 -2.084050
v 4.932177 -0.011506 -2.052217
v 4.908000 -0.012248 -2.020760
v 4.883090 -0.012444 -1.989873
v 4.857656 -0.012248 -1.959416
v 4.831520 -0.011506 -1.929566
v 4.776888 -0.010398 -1.872114
v 4.747464 -0.011506 -1.845510
v 4.717614 -0.012248 -1.819374
v 4.687157 -0.012444 -1.793940
v 4.656270 -0.012248 -1.769031
v 4.624813 -0.011506 -1.744853
v 4.560023 -0.010398 -1.699163
v 4.525973 -0.011506 -1.678811
v 4.491599 -0.012248 -1.659001
v 4.456765 -0.012444 -1.639997
v 4.421612 -0.012248 -1.621592
v 4.386043 -0.011506 -1.604016
v 4.313583 -0.010398 -1.571844
v 4.276218 -0.011506 -1.558525
v 4.238639 -0.012248 -1.545802
v 4.200767 -0.012444 -1.533959
v 4.162698 -0.012248 -1.522766
v 4.124384 -0.011506 -1.512467
v 4.047040 -0.010398 -1.495049
v 4.007794 -0.011506 -1.489276
v 3.968455 -0.012248 -1.484128
v 3.929001 -0.012444 -1.479902
v 3.889480 -0.012248 -1.476350
v 3.849893 -0.011506 -1.473724
v 3.770637 -0.010398 -1.471730
v 3.731019 -0.011506 -1.473724
v 3.691432 -0.012248 -1.476350
v 3.651911 -0.012444 -1.479902
v 3.612456 -0.012248 -1.484128
v 3.573117 -0.011506 -1.489276
v 3.494996 -0.010398 -1.502782
v 3.456528 -0.011506 -1.512467
v 3.418213 -0.012248 -1.522765
v 3.380145 -0.012444 -1.533959
v 3.342273 -0.012249 -1.545802
v 3.304694 -0.011506 -1.558525
v 3.230708 -0.010398 -1.587013
v 3.194869 -0.011506 -1.604016
v 3.159300 -0.012248 -1.621592
v 3.124146 -0.012444 -1.639997
v 3.089313 -0.012248 -1.659001
v 3.054938 -0.011506 -1.678811
v 2.987932 -0.010398 -1.721184
v 2.956098 -0.011506 -1.744853
v 2.924642 -0.012248 -1.769030
v 2.893754 -0.012444 -1.793940
v 2.863297 -0.012248 -1.819374
v 2.833448 -0.011506 -1.845510
v 2.775996 -0.010398 -1.900142
v 2.749392 -0.011506 -1.929566
v 2.723256 -0.012248 -1.959416
v 2.697822 -0.012444 -1.989873
v 2.672912 -0.012248 -2.020760
v 2.648735 -0.011506 -2.052217
v 2.603045 -0.010398 -2.117007
v 2.582693 -0.011506 -2.151056
v 2.562882 -0.012248 -2.185431
v 2.543879 -0.012444 -2.220265
v 2.525473 -0.012248 -2.255418
v 2.507898 -0.011506 -2.290987
v 2.475726 -0.010398 -2.363446
v 2.462407 -0.011506 -2.400812
v 2.449684 -0.012248 -2.438391
v 2.437841 -0.012444 -2.476263
v 2.426647 -0.012248 -2.514331
v 2.416349 -0.011506 -2.552646
v 2.398931 -0.010398 -2.629989
v 2.393158 -0.011506 -2.669235
v 2.388010 -0.012248 -2.708575
v 2.383783 -0.012444 -2.748029
v 2.380232 -0.012248 -2.787550
v 2.377606 -0.011506 -2.827137
v 2.375612 -0.010398 -2.906393
v 2.377606 -0.011506 -2.946011
v 2.380232 -0.012248 -2.985598
v 2.383783 -0.012444 -3.025119
v 2.388010 -0.012248 -3.064574
v 2.393157 -0.011506 -3.103913
v 2.406664 -0.010398 -3.182034
v 2.416349 -0.011506 -3.220502
v 2.426648 -0.012248 -3.258817
v 2.437841 -0.012444 -3.296885
v 2.449684 -0.012248 -3.334757
v 2.462407 -0.011506 -3.372336
v 2.490894 -0.010398 -3.446321
v 2.507898 -0.011506 -3.482161
v 2.525473 -0.012248 -3.517730
v 2.543879 -0.012444 -3.552883
v 2.562882 -0.012248 -3.587717
v 2.582693 -0.011506 -3.622092
v 2.625066 -0.010398 -3.689098
v 2.648735 -0.011506 -3.720932
v 2.672912 -0.012248 -3.752388
v 2.697822 -0.012444 -3.783276
v 2.723256 -0.012248 -3.813732
v 2.749392 -0.011506 -3.843582
v 2.804024 -0.010398 -3.901034
v 2.833448 -0.011506 -3.927638
v 2.863297 -0.012248 -3.953774
v 2.893754 -0.012444 -3.979208
v 2.924642 -0.012248 -4.004117
v 2.956099 -0.011506 -4.028295
v 3.020889 -0.010398 -4.073985
v 3.054938 -0.011506 -4.094337
v 3.089313 -0.012248 -4.114147
v 3.124146 -0.012444 -4.133151
v 3.159300 -0.012248 -4.151556
v 3.194869 -0.011506 -4.169132
v 3.267328 -0.010398 -4.201304
v 3.304694 -0.011506 -4.214623
v 3.342273 -0.012248 -4.227346
v 3.380145 -0.012444 -4.239189
v 3.418213 -0.012248 -4.250382
v 3.456528 -0.011506 -4.260681
v 3.533871 -0.010398 -4.278099
v 3.573117 -0.011506 -4.283872
v 3.612456 -0.012248 -4.289020
v 3.651911 -0.012444 -4.293246
v 3.691432 -0.012248 -4.296798
v 3.731019 -0.011506 -4.299424
vn 0.0409 0.4468 -0.8937
vn 0.2145 0.4468 -0.8685
vn 0.3798 0.4468 -0.8100
vn 0.5305 0.4468 -0.7203
vn 0.6608 0.4468 -0.6030
vn 0.7658 0.4468 -0.4625
vn 0.8413 0.4468 -0.3042
vn 0.8845 0.4468 -0.1342
vn 0.8937 0.4468 0.0409
vn 0.8685 0.4468 0.2145
vn 0.8100 0.4468 0.3798
vn 0.7204 0.4468 0.5305
vn 0.6030 0.4468 0.6608
vn 0.4625 0.4468 0.7658
vn 0.3042 0.4468 0.8413
vn 0.1342 0.4468 0.8845
vn -0.0409 0.4468 0.8937
vn -0.2144 0.4468 0.8685
vn -0.3798 0.4468 0.8100
vn -0.5305 0.4468 0.7203
vn -0.6608 0.4468 0.6030
vn -0.7658 0.4468 0.4625
vn -0.8413 0.4468 0.3042
vn -0.8845 0.4468 0.1342
vn -0.8937 0.4468 -0.0409
vn -0.8685 0.4468 -0.2145
vn -0.8100 0.4468 -0.3798
vn -0.7203 0.4468 -0.5305
vn -0.6030 0.4468 -0.6608
vn -0.4625 0.4468 -0.7658
vn -0.0000 -1.0000 -0.0000
vn -0.3042 0.4468 -0.8413
vn -0.1342 0.4468 -0.8845
vn -0.0552 0.4466 -0.8930
vn -0.0630 0.4465 -0.8926
vn -0.0769 0.4464 -0.8915
vn -0.0877 0.4464 -0.8905
vn -0.1032 0.4464 -0.8888
vn -0.1157 0.4465 -0.8873
vn -0.2284 0.4466 -0.8651
vn -0.2359 0.4465 -0.8631
vn -0.2493 0.4464 -0.8594
vn -0.2598 0.4464 -0.8563
vn -0.2746 0.4464 -0.8516
vn -0.2865 0.4465 -0.8476
vn -0.3928 0.4466 -0.8039
vn -0.3997 0.4465 -0.8005
vn -0.4122 0.4464 -0.7942
vn -0.4218 0.4464 -0.7892
vn -0.4355 0.4464 -0.7817
vn -0.4464 0.4465 -0.7754
vn -0.5421 0.4466 -0.7118
vn -0.5482 0.4465 -0.7072
vn -0.5592 0.4464 -0.6986
vn -0.5677 0.4464 -0.6917
vn -0.5796 0.4464 -0.6817
vn -0.5891 0.4465 -0.6735
vn -0.6705 0.4466 -0.5924
vn -0.6757 0.4465 -0.5866
vn -0.6848 0.4464 -0.5760
vn -0.6917 0.4464 -0.5677
vn -0.7015 0.4464 -0.5555
vn -0.7092 0.4465 -0.5456
vn -0.7732 0.4466 -0.4502
vn -0.7771 0.4465 -0.4435
vn -0.7840 0.4464 -0.4314
vn -0.7892 0.4464 -0.4218
vn -0.7964 0.4464 -0.4080
vn -0.8020 0.4465 -0.3967
vn -0.8462 0.4466 -0.2907
vn -0.8487 0.4465 -0.2834
vn -0.8531 0.4464 -0.2701
vn -0.8563 0.4464 -0.2598
vn -0.8607 0.4464 -0.2448
vn -0.8640 0.4465 -0.2327
vn -0.8866 0.4466 -0.1201
vn -0.8877 0.4465 -0.1124
vn -0.8894 0.4464 -0.0985
vn -0.8905 0.4464 -0.0877
vn -0.8919 0.4464 -0.0722
vn -0.8928 0.4465 -0.0596
vn -0.8930 0.4466 0.0552
vn -0.8926 0.4465 0.0630
vn -0.8915 0.4464 0.0769
vn -0.8905 0.4464 0.0877
vn -0.8888 0.4464 0.1032
vn -0.8873 0.4465 0.1157
vn -0.8651 0.4466 0.2284
vn -0.8631 0.4465 0.2359
vn -0.8594 0.4464 0.2493
vn -0.8563 0.4464 0.2598
vn -0.8516 0.4464 0.2747
vn -0.8476 0.4465 0.2865
vn -0.8039 0.4466 0.3928
vn -0.8005 0.4465 0.3997
vn -0.7942 0.4464 0.4122
vn -0.7892 0.4464 0.4218
vn -0.7817 0.4464 0.4355
vn -0.7754 0.4465 0.4464
vn -0.7118 0.4466 0.5420
vn -0.7072 0.4465 0.5482
vn -0.6986 0.4464 0.5592
vn -0.6917 0.4464 0.5677
vn -0.6817 0.4464 0.5796
vn -0.6735 0.4465 0.5891
vn -0.5924 0.4466 0.6705
vn -0.5866 0.4465 0.6757
vn -0.5760 0.4464 0.6848
vn -0.5677 0.4464 0.6917
vn -0.5555 0.4464 0.7015
vn -0.5456 0.4465 0.7092
vn -0.4502 0.4466 0.7732
vn -0.4435 0.4465 0.7771
vn -0.4314 0.4464 0.7840
vn -0.4218 0.4464 0.7892
vn -0.4080 0.4464 0.7964
vn -0.3967 0.4465 0.8020
vn -0.2907 0.4466 0.8462
vn -0.2834 0.4465 0.8487
vn -0.2702 0.4464 0.8531
vn -0.2598 0.4464 0.8563
vn -0.2448 0.4464 0.8607
vn -0.2327 0.4465 0.8640
vn -0.1201 0.4466 0.8866
vn -0.1124 0.4465 0.8877
vn -0.0985 0.4464 0.8894
vn -0.0877 0.4464 0.8905
vn -0.0722 0.4464 0.8919
vn -0.0596 0.4465 0.8928
vn 0.0552 0.4466 0.8930
vn 0.0630 0.4465 0.8926
vn 0.0769 0.4464 0.8915
vn 0.0877 0.4464 0.8905
vn 0.1032 0.4464 0.8888
vn 0.1157 0.4465 0.8872
vn 0.2284 0.4466 0.8651
vn 0.2359 0.4465 0.8631
vn 0.2493 0.4464 0.8594
vn 0.2598 0.4464 0.8563
vn 0.2747 0.4464 0.8516
vn 0.2866 0.4465 0.8476
vn 0.3928 0.4466 0.8039
vn 0.3997 0.4465 0.8005
vn 0.4122 0.4464 0.7942
vn 0.4218 0.4464 0.7892
vn 0.4355 0.4464 0.7817
vn 0.4464 0.4465 0.7754
vn 0.5420 0.4466 0.7118
vn 0.5482 0.4465 0.7072
vn 0.5592 0.4464 0.6986
vn 0.5677 0.4464 0.6917
vn 0.5796 0.4464 0.6817
vn 0.5891 0.4465 0.6735
vn 0.6705 0.4466 0.5924
vn 0.6756 0.4465 0.5866
vn 0.6848 0.4464 0.5760
vn 0.6917 0.4464 0.5677
vn 0.7015 0.4464 0.5555
vn 0.7092 0.4465 0.5456
vn 0.7732 0.4466 0.4502
vn 0.7771 0.4465 0.4435
vn 0.7840 0.4464 0.4314
vn 0.7892 0.4464 0.4218
vn 0.7964 0.4464 0.4080
vn 0.8020 0.4465 0.3968
vn 0.8462 0.4466 0.2907
vn 0.8487 0.4465 0.2834
vn 0.8531 0.4464 0.2702
vn 0.8563 0.4464 0.2598
vn 0.8607 0.4464 0.2448
vn 0.8640 0.4465 0.2327
vn 0.8866 0.4466 0.1201
vn 0.8877 0.4465 0.1124
vn 0.8894 0.4464 0.0985
vn 0.8905 0.4464 0.0877
vn 0.8919 0.4464 0.0722
vn 0.8928 0.4465 0.0596
vn 0.8930 0.4466 -0.0552
vn 0.8926 0.4465 -0.0630
vn 0.8915 0.4464 -0.0769
vn 0.8905 0.4464 -0.0877
vn 0.8888 0.4464 -0.1032
vn 0.8873 0.4465 -0.1157
vn 0.8651 0.4466 -0.2284
vn 0.8631 0.4465 -0.2359
vn 0.8594 0.4464 -0.2493
vn 0.8563 0.4464 -0.2598
vn 0.8516 0.4464 -0.2746
vn 0.8476 0.4465 -0.2865
vn 0.8039 0.4466 -0.3928
vn 0.8005 0.4465 -0.3997
vn 0.7942 0.4464 -0.4122
vn 0.7892 0.4464 -0.4218
vn 0.7817 0.4464 -0.4355
vn 0.7754 0.4465 -0.4464
vn 0.7118 0.4466 -0.5421
vn 0.7072 0.4465 -0.5482
vn 0.6986 0.4464 -0.5592
vn 0.6917 0.4464 -0.5677
vn 0.6817 0.4464 -0.5796
vn 0.6735 0.4465 -0.5891
vn 0.5924 0.4466 -0.6705
vn 0.5866 0.4465 -0.6757
vn 0.5761 0.4464 -0.6847
vn 0.5677 0.4464 -0.6917
vn 0.5555 0.4464 -0.7015
vn 0.5456 0.4465 -0.7092
vn 0.4502 0.4466 -0.7732
vn 0.4435 0.4465 -0.7771
vn 0.4314 0.4464 -0.7840
vn 0.4218 0.4464 -0.7892
vn 0.4080 0.4464 -0.7964
vn 0.3968 0.4465 -0.8020
vn 0.2907 0.4466 -0.8462
vn 0.2834 0.4465 -0.8487
vn 0.2701 0.4464 -0.8531
vn 0.2598 0.4464 -0.8563
vn 0.2448 0.4464 -0.8607
vn 0.2327 0.4465 -0.8640
vn 0.1201 0.4466 -0.8866
vn 0.1124 0.4465 -0.8877
vn 0.0985 0.4464 -0.8894
vn 0.0877 0.4464 -0.8905
vn 0.0722 0.4464 -0.8919
vn 0.0596 0.4465 -0.8928
vn 0.0630 0.4465 -0.8926
vn 0.0769 0.4464 -0.8915
vn 0.1032 0.4464 -0.8888
vn 0.1157 0.4465 -0.8873
vn 0.1342 0.4468 -0.8845
vn 0.2359 0.4465 -0.8631
vn 0.2493 0.4464 -0.8594
vn 0.2747 0.4464 -0.8516
vn 0.2865 0.4465 -0.8476
vn 0.3042 0.4468 -0.8413
vn 0.3997 0.4465 -0.8005
vn 0.4122 0.4464 -0.7942
vn 0.4355 0.4464 -0.7817
vn 0.4464 0.4465 -0.7754
vn 0.4625 0.4468 -0.7658
vn 0.5482 0.4465 -0.7072
vn 0.5592 0.4464 -0.6986
vn 0.5796 0.4464 -0.6817
vn 0.5891 0.4465 -0.6735
vn 0.6030 0.4468 -0.6608
vn 0.6756 0.4465 -0.5866
vn 0.6848 0.4464 -0.5760
vn 0.7015 0.4464 -0.5555
vn 0.7092 0.4465 -0.5456
vn 0.7203 0.4468 -0.5305
vn 0.7771 0.4465 -0.4435
vn 0.7840 0.4464 -0.4314
vn 0.7964 0.4464 -0.4080
vn 0.8020 0.4465 -0.3968
vn 0.8100 0.4468 -0.3798
vn 0.8487 0.4465 -0.2834
vn 0.8531 0.4464 -0.2701
vn 0.8607 0.4464 -0.2448
vn 0.8640 0.4465 -0.2327
vn 0.8685 0.4468 -0.2145
vn 0.8877 0.4465 -0.1124
vn 0.8894 0.4464 -0.0985
vn 0.8919 0.4464 -0.0722
vn 0.8928 0.4465 -0.0596
vn 0.8937 0.4468 -0.0409
vn 0.8926 0.4465 0.0629
vn 0.8915 0.4464 0.0769
vn 0.8888 0.4464 0.1032
vn 0.8873 0.4465 0.1157
vn 0.8845 0.4468 0.1342
vn 0.8631 0.4465 0.2359
vn 0.8594 0.4464 0.2493
vn 0.8516 0.4464 0.2746
vn 0.8476 0.4465 0.2866
vn 0.8413 0.4468 0.3042
vn 0.8005 0.4465 0.3997
vn 0.7942 0.4464 0.4122
vn 0.7817 0.4464 0.4355
vn 0.7754 0.4465 0.4464
vn 0.7658 0.4468 0.4625
vn 0.7072 0.4465 0.5482
vn 0.6986 0.4464 0.5592
vn 0.6817 0.4464 0.5796
vn 0.6735 0.4465 0.5891
vn 0.6608 0.4468 0.6030
vn 0.5866 0.4465 0.6756
vn 0.5760 0.4464 0.6847
vn 0.5555 0.4464 0.7015
vn 0.5456 0.4465 0.7092
vn 0.5305 0.4468 0.7204
vn 0.4435 0.4465 0.7771
vn 0.4314 0.4464 0.7840
vn 0.4080 0.4464 0.7964
vn 0.3968 0.4465 0.8020
vn 0.3798 0.4468 0.8100
vn 0.2834 0.4465 0.8487
vn 0.2702 0.4464 0.8531
vn 0.2448 0.4464 0.8607
vn 0.2327 0.4465 0.8640
vn 0.2144 0.4468 0.8685
vn 0.1124 0.4465 0.8877
vn 0.0985 0.4464 0.8894
vn 0.0722 0.4464 0.8919
vn 0.0596 0.4465 0.8928
vn 0.0409 0.4468 0.8937
vn -0.0629 0.4465 0.8926
vn -0.0769 0.4464 0.8915
vn -0.1032 0.4464 0.8888
vn -0.1157 0.4465 0.8873
vn -0.1342 0.4468 0.8845
vn -0.2359 0.4465 0.8631
vn -0.2493 0.4464 0.8594
vn -0.2746 0.4464 0.8516
vn -0.2866 0.4465 0.8476
vn -0.3042 0.4468 0.8413
vn -0.3997 0.4465 0.8005
vn -0.4122 0.4464 0.7942
vn -0.4355 0.4464 0.7817
vn -0.4464 0.4465 0.7754
vn -0.4625 0.4468 0.7658
vn -0.5482 0.4465 0.7072
vn -0.5592 0.4464 0.6986
vn -0.5797 0.4464 0.6817
vn -0.5891 0.4465 0.6735
vn -0.6030 0.4468 0.6608
vn -0.6757 0.4465 0.5866
vn -0.6848 0.4464 0.5760
vn -0.7015 0.4464 0.5555
vn -0.7092 0.4465 0.5456
vn -0.7203 0.4468 0.5305
vn -0.7771 0.4465 0.4435
vn -0.7840 0.4464 0.4314
vn -0.7964 0.4464 0.4080
vn -0.8020 0.4465 0.3967
vn -0.8100 0.4468 0.3798
vn -0.8487 0.4465 0.2834
vn -0.8531 0.4464 0.2701
vn -0.8607 0.4464 0.2448
vn -0.8640 0.4465 0.2327
vn -0.8685 0.4468 0.2145
vn -0.8877 0.4465 0.1124
vn -0.8894 0.4464 0.0985
vn -0.8919 0.4464 0.0722
vn -0.8928 0.4465 0.0596
vn -0.8937 0.4468 0.0409
vn -0.8926 0.4465 -0.0629
vn -0.8915 0.4464 -0.0769
vn -0.8888 0.4464 -0.1032
vn -0.8872 0.4465 -0.1157
vn -0.8845 0.4468 -0.1342
vn -0.8631 0.4465 -0.2359
vn -0.8594 0.4464 -0.2493
vn -0.8516 0.4464 -0.2747
vn -0.8476 0.4465 -0.2866
vn -0.8413 0.4468 -0.3042
vn -0.8005 0.4465 -0.3997
vn -0.7942 0.4464 -0.4122
vn -0.7817 0.4464 -0.4355
vn -0.7754 0.4465 -0.4464
vn -0.7658 0.4468 -0.4625
vn -0.7072 0.4465 -0.5482
vn -0.6986 0.4464 -0.5592
vn -0.6817 0.4464 -0.5796
vn -0.6735 0.4465 -0.5891
vn -0.6608 0.4468 -0.6030
vn -0.5866 0.4465 -0.6756
vn -0.5760 0.4464 -0.6847
vn -0.5555 0.4464 -0.7015
vn -0.5456 0.4465 -0.7092
vn -0.5305 0.4468 -0.7204
vn -0.4435 0.4465 -0.7771
vn -0.4314 0.4464 -0.7840
vn -0.4080 0.4464 -0.7964
vn -0.3968 0.4465 -0.8020
vn -0.3798 0.4468 -0.8100
vn -0.2834 0.4465 -0.8487
vn -0.2702 0.4464 -0.8531
vn -0.2448 0.4464 -0.8607
vn -0.2327 0.4465 -0.8640
vn -0.2144 0.4468 -0.8685
vn -0.1124 0.4465 -0.8877
vn -0.0985 0.4464 -0.8894
vn -0.0722 0.4464 -0.8919
vn -0.0596 0.4465 -0.8928
vn -0.0409 0.4468 -0.8937
vn -0.1201 0.4466 -0.8866
vn -0.2907 0.4466 -0.8462
vn -0.4502 0.4466 -0.7732
vn -0.5924 0.4466 -0.6705
vn -0.7118 0.4466 -0.5421
vn -0.8039 0.4466 -0.3928
vn -0.8651 0.4466 -0.2284
vn -0.8930 0.4466 -0.0552
vn -0.8866 0.4466 0.1201
vn -0.8462 0.4466 0.2907
vn -0.7732 0.4466 0.4502
vn -0.6705 0.4466 0.5924
vn -0.5420 0.4466 0.7118
vn -0.3928 0.4466 0.8039
vn -0.2284 0.4466 0.8651
vn -0.0552 0.4466 0.8930
vn 0.1201 0.4466 0.8866
vn 0.2907 0.4466 0.8462
vn 0.4502 0.4466 0.7732
vn 0.5924 0.4466 0.6705
vn 0.7118 0.4466 0.5421
vn 0.8039 0.4466 0.3928
vn 0.8651 0.4466 0.2284
vn 0.8930 0.4466 0.0552
vn 0.8866 0.4466 -0.1201
vn 0.8462 0.4466 -0.2907
vn 0.7732 0.4466 -0.4502
vn 0.6705 0.4466 -0.5924
vn 0.5421 0.4466 -0.7118
vn 0.3928 0.4466 -0.8039
vn 0.2284 0.4466 -0.8651
vn 0.0552 0.4466 -0.8930
vt 0.250000 0.490000
vt 0.250000 0.250000
vt 0.253344 0.489671
vt 0.296822 0.485388
vt 0.300038 0.484413
vt 0.341844 0.471731
vt 0.344808 0.470147
vt 0.383337 0.449553
vt 0.385935 0.447421
vt 0.419706 0.419706
vt 0.421838 0.417108
vt 0.449553 0.383337
vt 0.451137 0.380373
vt 0.471731 0.341844
vt 0.472707 0.338628
vt 0.485388 0.296822
vt 0.485718 0.293477
vt 0.490000 0.250000
vt 0.489671 0.246656
vt 0.485388 0.203178
vt 0.484413 0.199962
vt 0.471731 0.158156
vt 0.470147 0.155192
vt 0.449553 0.116663
vt 0.447421 0.114065
vt 0.419706 0.080294
vt 0.417108 0.078162
vt 0.383337 0.050447
vt 0.380373 0.048863
vt 0.341844 0.028269
vt 0.338628 0.027293
vt 0.296822 0.014612
vt 0.293477 0.014282
vt 0.250000 0.010000
vt 0.246656 0.010329
vt 0.203178 0.014612
vt 0.199962 0.015587
vt 0.158156 0.028269
vt 0.155192 0.029853
vt 0.116663 0.050447
vt 0.114065 0.052579
vt 0.080294 0.080294
vt 0.078162 0.082892
vt 0.050447 0.116663
vt 0.048863 0.119627
vt 0.028269 0.158156
vt 0.027293 0.161372
vt 0.014612 0.203178
vt 0.014282 0.206523
vt 0.010000 0.250000
vt 0.010329 0.253344
vt 0.014612 0.296822
vt 0.015587 0.300038
vt 0.028269 0.341844
vt 0.029853 0.344808
vt 0.050447 0.383337
vt 0.052579 0.385935
vt 0.080294 0.419706
vt 0.082892 0.421838
vt 0.116663 0.449553
vt 0.119627 0.451137
vt 0.750000 0.490000
vt 0.753344 0.489671
vt 0.756689 0.489341
vt 0.760033 0.489012
vt 0.763378 0.488682
vt 0.766722 0.488353
vt 0.770066 0.488024
vt 0.773411 0.487694
vt 0.776755 0.487365
vt 0.780100 0.487035
vt 0.783444 0.486706
vt 0.786788 0.486377
vt 0.790133 0.486047
vt 0.793477 0.485718
vt 0.796822 0.485388
vt 0.800038 0.484413
vt 0.803253 0.483437
vt 0.806469 0.482462
vt 0.809685 0.481486
vt 0.812901 0.480511
vt 0.816117 0.479535
vt 0.819333 0.478560
vt 0.822549 0.477584
vt 0.825765 0.476609
vt 0.828980 0.475633
vt 0.832196 0.474658
vt 0.835412 0.473682
vt 0.838628 0.472707
vt 0.841844 0.471731
vt 0.844808 0.470147
vt 0.847772 0.468563
vt 0.850735 0.466979
vt 0.853699 0.465394
vt 0.856663 0.463810
vt 0.859627 0.462226
vt 0.862590 0.460642
vt 0.865554 0.459058
vt 0.868518 0.457474
vt 0.871482 0.455889
vt 0.874445 0.454305
vt 0.877409 0.452721
vt 0.880373 0.451137
vt 0.883337 0.449553
vt 0.885935 0.447421
vt 0.888532 0.445289
vt 0.891130 0.443157
vt 0.893728 0.441025
vt 0.896326 0.438893
vt 0.898923 0.436761
vt 0.901521 0.434629
vt 0.904119 0.432497
vt 0.906717 0.430365
vt 0.909315 0.428233
vt 0.911912 0.426101
vt 0.914510 0.423970
vt 0.917108 0.421838
vt 0.919706 0.419706
vt 0.921838 0.417108
vt 0.923970 0.414510
vt 0.926101 0.411912
vt 0.928233 0.409315
vt 0.930365 0.406717
vt 0.932497 0.404119
vt 0.934629 0.401521
vt 0.936761 0.398923
vt 0.938893 0.396326
vt 0.941025 0.393728
vt 0.943157 0.391130
vt 0.945289 0.388532
vt 0.947421 0.385935
vt 0.949553 0.383337
vt 0.951137 0.380373
vt 0.952721 0.377409
vt 0.954305 0.374446
vt 0.955889 0.371482
vt 0.957474 0.368518
vt 0.959058 0.365554
vt 0.960642 0.362590
vt 0.962226 0.359627
vt 0.963810 0.356663
vt 0.965394 0.353699
vt 0.966979 0.350735
vt 0.968563 0.347772
vt 0.970147 0.344808
vt 0.971731 0.341844
vt 0.972707 0.338628
vt 0.973682 0.335412
vt 0.974658 0.332196
vt 0.975633 0.328980
vt 0.976609 0.325765
vt 0.977584 0.322549
vt 0.978560 0.319333
vt 0.979535 0.316117
vt 0.980511 0.312901
vt 0.981486 0.309685
vt 0.982462 0.306469
vt 0.983437 0.303253
vt 0.984413 0.300038
vt 0.985388 0.296822
vt 0.985718 0.293477
vt 0.986047 0.290133
vt 0.986377 0.286788
vt 0.986706 0.283444
vt 0.987036 0.280100
vt 0.987365 0.276755
vt 0.987694 0.273411
vt 0.988024 0.270066
vt 0.988353 0.266722
vt 0.988682 0.263378
vt 0.989012 0.260033
vt 0.989341 0.256689
vt 0.989671 0.253344
vt 0.990000 0.250000
vt 0.989671 0.246656
vt 0.989341 0.243311
vt 0.989012 0.239967
vt 0.988682 0.236622
vt 0.988353 0.233278
vt 0.988024 0.229934
vt 0.987694 0.226589
vt 0.987365 0.223245
vt 0.987035 0.219900
vt 0.986706 0.216556
vt 0.986377 0.213212
vt 0.986047 0.209867
vt 0.985718 0.206523
vt 0.985388 0.203178
vt 0.984413 0.199962
vt 0.983437 0.196747
vt 0.982462 0.193531
vt 0.981486 0.190315
vt 0.980511 0.187099
vt 0.979535 0.183883
vt 0.978560 0.180667
vt 0.977584 0.177451
vt 0.976609 0.174235
vt 0.975633 0.171019
vt 0.974658 0.167804
vt 0.973682 0.164588
vt 0.972707 0.161372
vt 0.971731 0.158156
vt 0.970147 0.155192
vt 0.968563 0.152228
vt 0.966979 0.149265
vt 0.965394 0.146301
vt 0.963810 0.143337
vt 0.962226 0.140373
vt 0.960642 0.137410
vt 0.959058 0.134446
vt 0.957474 0.131482
vt 0.955889 0.128518
vt 0.954305 0.125554
vt 0.952721 0.122591
vt 0.951137 0.119627
vt 0.949553 0.116663
vt 0.947421 0.114065
vt 0.945289 0.111468
vt 0.943157 0.108870
vt 0.941025 0.106272
vt 0.938893 0.103674
vt 0.936761 0.101077
vt 0.934629 0.098479
vt 0.932497 0.095881
vt 0.930365 0.093283
vt 0.928233 0.090685
vt 0.926101 0.088088
vt 0.923970 0.085490
vt 0.921838 0.082892
vt 0.919706 0.080294
vt 0.917108 0.078162
vt 0.914510 0.076031
vt 0.911912 0.073899
vt 0.909315 0.071767
vt 0.906717 0.069635
vt 0.904119 0.067503
vt 0.901521 0.065371
vt 0.898924 0.063239
vt 0.896326 0.061107
vt 0.893728 0.058975
vt 0.891130 0.056843
vt 0.888532 0.054711
vt 0.885935 0.052579
vt 0.883337 0.050447
vt 0.880373 0.048863
vt 0.877409 0.047279
vt 0.874446 0.045695
vt 0.871482 0.044111
vt 0.868518 0.042526
vt 0.865554 0.040942
vt 0.862590 0.039358
vt 0.859627 0.037774
vt 0.856663 0.036190
vt 0.853699 0.034606
vt 0.850735 0.033021
vt 0.847772 0.031437
vt 0.844808 0.029853
vt 0.841844 0.028269
vt 0.838628 0.027293
vt 0.835412 0.026318
vt 0.832196 0.025342
vt 0.828981 0.024367
vt 0.825765 0.023391
vt 0.822549 0.022416
vt 0.819333 0.021440
vt 0.816117 0.020465
vt 0.812901 0.019489
vt 0.809685 0.018514
vt 0.806469 0.017538
vt 0.803253 0.016563
vt 0.800038 0.015587
vt 0.796822 0.014612
vt 0.793477 0.014282
vt 0.790133 0.013953
vt 0.786788 0.013623
vt 0.783444 0.013294
vt 0.780100 0.012965
vt 0.776755 0.012635
vt 0.773411 0.012306
vt 0.770066 0.011976
vt 0.766722 0.011647
vt 0.763378 0.011318
vt 0.760033 0.010988
vt 0.756689 0.010659
vt 0.753344 0.010329
vt 0.750000 0.010000
vt 0.746656 0.010329
vt 0.743311 0.010659
vt 0.739967 0.010988
vt 0.736622 0.011318
vt 0.733278 0.011647
vt 0.729934 0.011976
vt 0.726589 0.012306
vt 0.723245 0.012635
vt 0.719900 0.012965
vt 0.716556 0.013294
vt 0.713212 0.013623
vt 0.709867 0.013953
vt 0.706523 0.014282
vt 0.703178 0.014612
vt 0.699962 0.015587
vt 0.696747 0.016563
vt 0.693531 0.017538
vt 0.690315 0.018514
vt 0.687099 0.019489
vt 0.683883 0.020465
vt 0.680667 0.021440
vt 0.677451 0.022416
vt 0.674235 0.023391
vt 0.671019 0.024367
vt 0.667804 0.025342
vt 0.664588 0.026318
vt 0.661372 0.027293
vt 0.658156 0.028269
vt 0.655192 0.029853
vt 0.652228 0.031437
vt 0.649265 0.033021
vt 0.646301 0.034606
vt 0.643337 0.036190
vt 0.640373 0.037774
vt 0.637410 0.039358
vt 0.634446 0.040942
vt 0.631482 0.042526
vt 0.628518 0.044111
vt 0.625554 0.045695
vt 0.622591 0.047279
vt 0.619627 0.048863
vt 0.616663 0.050447
vt 0.614065 0.052579
vt 0.611468 0.054711
vt 0.608870 0.056843
vt 0.606272 0.058975
vt 0.603674 0.061107
vt 0.601077 0.063239
vt 0.598479 0.065371
vt 0.595881 0.067503
vt 0.593283 0.069635
vt 0.590685 0.071767
vt 0.588088 0.073899
vt 0.585490 0.076031
vt 0.582892 0.078162
vt 0.580294 0.080294
vt 0.578162 0.082892
vt 0.576030 0.085490
vt 0.573899 0.088088
vt 0.571767 0.090685
vt 0.569635 0.093283
vt 0.567503 0.095881
vt 0.565371 0.098479
vt 0.563239 0.101077
vt 0.561107 0.103674
vt 0.558975 0.106272
vt 0.556843 0.108870
vt 0.554711 0.111468
vt 0.552579 0.114065
vt 0.550447 0.116663
vt 0.548863 0.119627
vt 0.547279 0.122591
vt 0.545695 0.125554
vt 0.544111 0.128518
vt 0.542526 0.131482
vt 0.540942 0.134446
vt 0.539358 0.137410
vt 0.537774 0.140373
vt 0.536190 0.143337
vt 0.534606 0.146301
vt 0.533021 0.149265
vt 0.531437 0.152228
vt 0.529853 0.155192
vt 0.528269 0.158156
vt 0.527293 0.161372
vt 0.526318 0.164588
vt 0.525342 0.167804
vt 0.524367 0.171020
vt 0.523391 0.174235
vt 0.522416 0.177451
vt 0.521440 0.180667
vt 0.520465 0.183883
vt 0.519489 0.187099
vt 0.518514 0.190315
vt 0.517538 0.193531
vt 0.516563 0.196747
vt 0.515587 0.199962
vt 0.514612 0.203178
vt 0.514282 0.206523
vt 0.513953 0.209867
vt 0.513623 0.213212
vt 0.513294 0.216556
vt 0.512964 0.219900
vt 0.512635 0.223245
vt 0.512306 0.226589
vt 0.511976 0.229934
vt 0.511647 0.233278
vt 0.511318 0.236622
vt 0.510988 0.239967
vt 0.510659 0.243311
vt 0.510329 0.246656
vt 0.510000 0.250000
vt 0.510329 0.253344
vt 0.510659 0.256689
vt 0.510988 0.260033
vt 0.511318 0.263378
vt 0.511647 0.266722
vt 0.511976 0.270066
vt 0.512306 0.273411
vt 0.512635 0.276755
vt 0.512965 0.280100
vt 0.513294 0.283444
vt 0.513623 0.286788
vt 0.513953 0.290133
vt 0.514282 0.293477
vt 0.514612 0.296822
vt 0.515587 0.300038
vt 0.516563 0.303253
vt 0.517538 0.306469
vt 0.518514 0.309685
vt 0.519489 0.312901
vt 0.520465 0.316117
vt 0.521440 0.319333
vt 0.522416 0.322549
vt 0.523391 0.325765
vt 0.524367 0.328981
vt 0.525342 0.332196
vt 0.526318 0.335412
vt 0.527293 0.338628
vt 0.528269 0.341844
vt 0.529853 0.344808
vt 0.531437 0.347772
vt 0.533021 0.350735
vt 0.534606 0.353699
vt 0.536190 0.356663
vt 0.537774 0.359627
vt 0.539358 0.362590
vt 0.540942 0.365554
vt 0.542526 0.368518
vt 0.544111 0.371482
vt 0.545695 0.374445
vt 0.547279 0.377409
vt 0.548863 0.380373
vt 0.550447 0.383337
vt 0.552579 0.385935
vt 0.554711 0.388532
vt 0.556843 0.391130
vt 0.558975 0.393728
vt 0.561107 0.396326
vt 0.563239 0.398923
vt 0.565371 0.401521
vt 0.567503 0.404119
vt 0.569635 0.406717
vt 0.571767 0.409315
vt 0.573899 0.411912
vt 0.576030 0.414510
vt 0.578162 0.417108
vt 0.580294 0.419706
vt 0.582892 0.421838
vt 0.585490 0.423970
vt 0.588088 0.426101
vt 0.590685 0.428233
vt 0.593283 0.430365
vt 0.595881 0.432497
vt 0.598479 0.434629
vt 0.601077 0.436761
vt 0.603674 0.438893
vt 0.606272 0.441025
vt 0.608870 0.443157
vt 0.611468 0.445289
vt 0.614065 0.447421
vt 0.616663 0.449553
vt 0.619627 0.451137
vt 0.622591 0.452721
vt 0.625554 0.454305
vt 0.628518 0.455889
vt 0.631482 0.457474
vt 0.634446 0.459058
vt 0.637410 0.460642
vt 0.640373 0.462226
vt 0.643337 0.463810
vt 0.646301 0.465394
vt 0.649265 0.466979
vt 0.652228 0.468563
vt 0.655192 0.470147
vt 0.658156 0.471731
vt 0.661372 0.472707
vt 0.664588 0.473682
vt 0.667804 0.474658
vt 0.671019 0.475633
vt 0.674235 0.476609
vt 0.677451 0.477584
vt 0.680667 0.478560
vt 0.683883 0.479535
vt 0.687099 0.480511
vt 0.690315 0.481486
vt 0.693531 0.482462
vt 0.696747 0.483437
vt 0.699962 0.484413
vt 0.703178 0.485388
vt 0.706523 0.485718
vt 0.709867 0.486047
vt 0.713212 0.486377
vt 0.716556 0.486706
vt 0.719900 0.487035
vt 0.723245 0.487365
vt 0.726589 0.487694
vt 0.729934 0.488024
vt 0.733278 0.488353
vt 0.736622 0.488682
vt 0.739967 0.489012
vt 0.743311 0.489341
vt 0.746656 0.489671
vt 0.158156 0.471731
vt 0.161372 0.472707
vt 0.203178 0.485388
vt 0.206523 0.485718
vt 0.243311 0.489341
vt 0.246656 0.489671
vt 0.236622 0.488682
vt 0.239967 0.489012
vt 0.229934 0.488024
vt 0.233278 0.488353
vt 0.223245 0.487365
vt 0.226589 0.487694
vt 0.216556 0.486706
vt 0.219900 0.487035
vt 0.209867 0.486047
vt 0.213212 0.486377
vt 0.196747 0.483437
vt 0.199962 0.484413
vt 0.190315 0.481486
vt 0.193531 0.482462
vt 0.183883 0.479535
vt 0.187099 0.480511
vt 0.177451 0.477584
vt 0.180667 0.478560
vt 0.171020 0.475633
vt 0.174235 0.476609
vt 0.164588 0.473682
vt 0.167804 0.474658
vt 0.152228 0.468563
vt 0.155192 0.470147
vt 0.146301 0.465394
vt 0.149265 0.466979
vt 0.140373 0.462226
vt 0.143337 0.463810
vt 0.134446 0.459058
vt 0.137410 0.460642
vt 0.128518 0.455889
vt 0.131482 0.457474
vt 0.122591 0.452721
vt 0.125554 0.454305
vt 0.111468 0.445289
vt 0.114065 0.447421
vt 0.106272 0.441025
vt 0.108870 0.443157
vt 0.101077 0.436761
vt 0.103674 0.438893
vt 0.095881 0.432497
vt 0.098479 0.434629
vt 0.090685 0.428233
vt 0.093283 0.430365
vt 0.085490 0.423970
vt 0.088088 0.426101
vt 0.076031 0.414510
vt 0.078162 0.417108
vt 0.071767 0.409315
vt 0.073899 0.411912
vt 0.067503 0.404119
vt 0.069635 0.406717
vt 0.063239 0.398923
vt 0.065371 0.401521
vt 0.058975 0.393728
vt 0.061107 0.396326
vt 0.054711 0.388532
vt 0.056843 0.391130
vt 0.047279 0.377409
vt 0.048863 0.380373
vt 0.044111 0.371482
vt 0.045695 0.374445
vt 0.040942 0.365554
vt 0.042526 0.368518
vt 0.037774 0.359627
vt 0.039358 0.362590
vt 0.034606 0.353699
vt 0.036190 0.356663
vt 0.031437 0.347772
vt 0.033021 0.350735
vt 0.026318 0.335412
vt 0.027293 0.338628
vt 0.024367 0.328981
vt 0.025342 0.332196
vt 0.022416 0.322549
vt 0.023391 0.325765
vt 0.020465 0.316117
vt 0.021440 0.319333
vt 0.018514 0.309685
vt 0.019489 0.312901
vt 0.016563 0.303253
vt 0.017538 0.306469
vt 0.013953 0.290133
vt 0.014282 0.293477
vt 0.013294 0.283444
vt 0.013623 0.286788
vt 0.012635 0.276755
vt 0.012965 0.280100
vt 0.011976 0.270066
vt 0.012306 0.273411
vt 0.011318 0.263378
vt 0.011647 0.266722
vt 0.010659 0.256689
vt 0.010988 0.260033
vt 0.010659 0.243311
vt 0.010329 0.246656
vt 0.011318 0.236622
vt 0.010988 0.239967
vt 0.011976 0.229934
vt 0.011647 0.233278
vt 0.012635 0.223245
vt 0.012306 0.226589
vt 0.013294 0.216556
vt 0.012965 0.219900
vt 0.013953 0.209867
vt 0.013623 0.213212
vt 0.016563 0.196747
vt 0.015587 0.199962
vt 0.018514 0.190315
vt 0.017538 0.193531
vt 0.020465 0.183883
vt 0.019489 0.187099
vt 0.022416 0.177451
vt 0.021440 0.180667
vt 0.024367 0.171020
vt 0.023391 0.174235
vt 0.026318 0.164588
vt 0.025342 0.167804
vt 0.031437 0.152228
vt 0.029853 0.155192
vt 0.034606 0.146301
vt 0.033021 0.149265
vt 0.037774 0.140373
vt 0.036190 0.143337
vt 0.040942 0.134446
vt 0.039358 0.137410
vt 0.044111 0.128518
vt 0.042526 0.131482
vt 0.047279 0.122591
vt 0.045695 0.125554
vt 0.054711 0.111468
vt 0.052579 0.114065
vt 0.058975 0.106272
vt 0.056843 0.108870
vt 0.063239 0.101077
vt 0.061107 0.103674
vt 0.067503 0.095881
vt 0.065371 0.098479
vt 0.071767 0.090685
vt 0.069635 0.093283
vt 0.076031 0.085490
vt 0.073899 0.088088
vt 0.085490 0.076031
vt 0.082892 0.078162
vt 0.090685 0.071767
vt 0.088088 0.073899
vt 0.095881 0.067503
vt 0.093283 0.069635
vt 0.101077 0.063239
vt 0.098479 0.065371
vt 0.106272 0.058975
vt 0.103674 0.061107
vt 0.111468 0.054711
vt 0.108870 0.056843
vt 0.122591 0.047279
vt 0.119627 0.048863
vt 0.128518 0.044111
vt 0.125554 0.045695
vt 0.134446 0.040942
vt 0.131482 0.042526
vt 0.140373 0.037774
vt 0.137410 0.039358
vt 0.146301 0.034606
vt 0.143337 0.036190
vt 0.152228 0.031437
vt 0.149265 0.033021
vt 0.164588 0.026318
vt 0.161372 0.027293
vt 0.171019 0.024367
vt 0.167804 0.025342
vt 0.177451 0.022416
vt 0.174235 0.023391
vt 0.183883 0.020465
vt 0.180667 0.021440
vt 0.190315 0.018514
vt 0.187099 0.019489
vt 0.196747 0.016563
vt 0.193531 0.017538
vt 0.209867 0.013953
vt 0.206523 0.014282
vt 0.216556 0.013294
vt 0.213212 0.013623
vt 0.223245 0.012635
vt 0.219900 0.012965
vt 0.229934 0.011976
vt 0.226589 0.012306
vt 0.236622 0.011318
vt 0.233278 0.011647
vt 0.243311 0.010659
vt 0.239967 0.010988
vt 0.256689 0.010659
vt 0.253344 0.010329
vt 0.263378 0.011318
vt 0.260033 0.010988
vt 0.270066 0.011976
vt 0.266722 0.011647
vt 0.276755 0.012635
vt 0.273411 0.012306
vt 0.283444 0.013294
vt 0.280100 0.012965
vt 0.290133 0.013953
vt 0.286788 0.013623
vt 0.303253 0.016563
vt 0.300038 0.015587
vt 0.309685 0.018514
vt 0.306469 0.017538
vt 0.316117 0.020465
vt 0.312901 0.019489
vt 0.322549 0.022416
vt 0.319333 0.021440
vt 0.328980 0.024367
vt 0.325765 0.023391
vt 0.335412 0.026318
vt 0.332196 0.025342
vt 0.347772 0.031437
vt 0.344808 0.029853
vt 0.353699 0.034606
vt 0.350735 0.033021
vt 0.359627 0.037774
vt 0.356663 0.036190
vt 0.365554 0.040942
vt 0.362590 0.039358
vt 0.371482 0.044111
vt 0.368518 0.042526
vt 0.377409 0.047279
vt 0.374446 0.045695
vt 0.388532 0.054711
vt 0.385935 0.052579
vt 0.393728 0.058975
vt 0.391130 0.056843
vt 0.398923 0.063239
vt 0.396326 0.061107
vt 0.404119 0.067503
vt 0.401521 0.065371
vt 0.409315 0.071767
vt 0.406717 0.069635
vt 0.414510 0.076031
vt 0.411912 0.073899
vt 0.423970 0.085490
vt 0.421838 0.082892
vt 0.428233 0.090685
vt 0.426101 0.088088
vt 0.432497 0.095881
vt 0.430365 0.093283
vt 0.436761 0.101077
vt 0.434629 0.098479
vt 0.441025 0.106272
vt 0.438893 0.103674
vt 0.445289 0.111468
vt 0.443157 0.108870
vt 0.452721 0.122591
vt 0.451137 0.119627
vt 0.455889 0.128518
vt 0.454305 0.125554
vt 0.459058 0.134446
vt 0.457474 0.131482
vt 0.462226 0.140373
vt 0.460642 0.137410
vt 0.465394 0.146301
vt 0.463810 0.143337
vt 0.468563 0.152228
vt 0.466979 0.149265
vt 0.473682 0.164588
vt 0.472707 0.161372
vt 0.475633 0.171019
vt 0.474658 0.167804
vt 0.477584 0.177451
vt 0.476609 0.174235
vt 0.479535 0.183883
vt 0.478560 0.180667
vt 0.481486 0.190315
vt 0.480511 0.187099
vt 0.483437 0.196747
vt 0.482462 0.193531
vt 0.486047 0.209867
vt 0.485718 0.206523
vt 0.486706 0.216556
vt 0.486377 0.213212
vt 0.487365 0.223245
vt 0.487035 0.219900
vt 0.488024 0.229934
vt 0.487694 0.226589
vt 0.488682 0.236622
vt 0.488353 0.233278
vt 0.489341 0.243311
vt 0.489012 0.239967
vt 0.489341 0.256689
vt 0.489671 0.253344
vt 0.488682 0.263378
vt 0.489012 0.260033
vt 0.488024 0.270066
vt 0.488353 0.266722
vt 0.487365 0.276755
vt 0.487694 0.273411
vt 0.486706 0.283444
vt 0.487035 0.280100
vt 0.486047 0.290133
vt 0.486377 0.286788
vt 0.483437 0.303253
vt 0.484413 0.300038
vt 0.481486 0.309685
vt 0.482462 0.306469
vt 0.479535 0.316117
vt 0.480511 0.312901
vt 0.477584 0.322549
vt 0.478560 0.319333
vt 0.475633 0.328980
vt 0.476609 0.325765
vt 0.473682 0.335412
vt 0.474658 0.332196
vt 0.468563 0.347772
vt 0.470147 0.344808
vt 0.465394 0.353699
vt 0.466979 0.350735
vt 0.462226 0.359627
vt 0.463810 0.356663
vt 0.459058 0.365554
vt 0.460642 0.362590
vt 0.455889 0.371482
vt 0.457474 0.368518
vt 0.452721 0.377409
vt 0.454305 0.374446
vt 0.445289 0.388532
vt 0.447421 0.385935
vt 0.441025 0.393728
vt 0.443157 0.391130
vt 0.436761 0.398923
vt 0.438893 0.396326
vt 0.432497 0.404119
vt 0.434629 0.401521
vt 0.428233 0.409315
vt 0.430365 0.406717
vt 0.423970 0.414510
vt 0.426101 0.411912
vt 0.414510 0.423970
vt 0.417108 0.421838
vt 0.409315 0.428233
vt 0.411912 0.426101
vt 0.404119 0.432497
vt 0.406717 0.430365
vt 0.398923 0.436761
vt 0.401521 0.434629
vt 0.393728 0.441025
vt 0.396326 0.438893
vt 0.388532 0.445289
vt 0.391130 0.443157
vt 0.377409 0.452721
vt 0.380373 0.451137
vt 0.371482 0.455889
vt 0.374445 0.454305
vt 0.365554 0.459058
vt 0.368518 0.457474
vt 0.359627 0.462226
vt 0.362590 0.460642
vt 0.353699 0.465394
vt 0.356663 0.463810
vt 0.347772 0.468563
vt 0.350735 0.466979
vt 0.335412 0.473682
vt 0.338628 0.472707
vt 0.328981 0.475633
vt 0.332196 0.474658
vt 0.322549 0.477584
vt 0.325765 0.476609
vt 0.316117 0.479535
vt 0.319333 0.478560
vt 0.309685 0.481486
vt 0.312901 0.480511
vt 0.303253 0.483437
vt 0.306469 0.482462
vt 0.290133 0.486047
vt 0.293477 0.485718
vt 0.283444 0.486706
vt 0.286788 0.486377
vt 0.276755 0.487365
vt 0.280100 0.487035
vt 0.270066 0.488024
vt 0.273411 0.487694
vt 0.263378 0.488682
vt 0.266722 0.488353
vt 0.256689 0.489341
vt 0.260033 0.489012
s 0
f 1/1/1 33/2/1 258/3/1
f 2/4/2 33/2/2 264/5/2
f 3/6/3 33/2/3 270/7/3
f 4/8/4 33/2/4 276/9/4
f 5/10/5 33/2/5 282/11/5
f 6/12/6 33/2/6 288/13/6
f 7/14/7 33/2/7 294/15/7
f 8/16/8 33/2/8 300/17/8
f 9/18/9 33/2/9 306/19/9
f 10/20/10 33/2/10 312/21/10
f 11/22/11 33/2/11 318/23/11
f 12/24/12 33/2/12 324/25/12
f 13/26/13 33/2/13 330/27/13
f 14/28/14 33/2/14 336/29/14
f 15/30/15 33/2/15 342/31/15
f 16/32/16 33/2/16 348/33/16
f 17/34/17 33/2/17 354/35/17
f 18/36/18 33/2/18 360/37/18
f 19/38/19 33/2/19 366/39/19
f 20/40/20 33/2/20 372/41/20
f 21/42/21 33/2/21 378/43/21
f 22/44/22 33/2/22 384/45/22
f 23/46/23 33/2/23 390/47/23
f 24/48/24 33/2/24 396/49/24
f 25/50/25 33/2/25 402/51/25
f 26/52/26 33/2/26 408/53/26
f 27/54/27 33/2/27 414/55/27
f 28/56/28 33/2/28 420/57/28
f 29/58/29 33/2/29 426/59/29
f 30/60/30 33/2/30 432/61/30
f 1/62/31 258/63/31 34/64/31 259/65/31 35/66/31 260/67/31 36/68/31 261/69/31 37/70/31 262/71/31 38/72/31 263/73/31 39/74/31 226/75/31 2/76/31 264/77/31 40/78/31 265/79/31 41/80/31 266/81/31 42/82/31 267/83/31 43/84/31 268/85/31 44/86/31 269/87/31 45/88/31 227/89/31 3/90/31 270/91/31 46/92/31 271/93/31 47/94/31 272/95/31 48/96/31 273/97/31 49/98/31 274/99/31 50/100/31 275/101/31 51/102/31 228/103/31 4/104/31 276/105/31 52/106/31 277/107/31 53/108/31 278/109/31 54/110/31 279/111/31 55/112/31 280/113/31 56/114/31 281/115/31 57/116/31 229/117/31 5/118/31 282/119/31 58/120/31 283/121/31 59/122/31 284/123/31 60/124/31 285/125/31 61/126/31 286/127/31 62/128/31 287/129/31 63/130/31 230/131/31 6/132/31 288/133/31 64/134/31 289/135/31 65/136/31 290/137/31 66/138/31 291/139/31 67/140/31 292/141/31 68/142/31 293/143/31 69/144/31 231/145/31 7/146/31 294/147/31 70/148/31 295/149/31 71/150/31 296/151/31 72/152/31 297/153/31 73/154/31 298/155/31 74/156/31 299/157/31 75/158/31 232/159/31 8/160/31 300/161/31 76/162/31 301/163/31 77/164/31 302/165/31 78/166/31 303/167/31 79/168/31 304/169/31 80/170/31 305/171/31 81/172/31 233/173/31 9/174/31 306/175/31 82/176/31 307/177/31 83/178/31 308/179/31 84/180/31 309/181/31 85/182/31 310/183/31 86/184/31 311/185/31 87/186/31 234/187/31 10/188/31 312/189/31 88/190/31 313/191/31 89/192/31 314/193/31 90/194/31 315/195/31 91/196/31 316/197/31 92/198/31 317/199/31 93/200/31 235/201/31 11/202/31 318/203/31 94/204/31 319/205/31 95/206/31 320/207/31 96/208/31 321/209/31 97/210/31 322/211/31 98/212/31 323/213/31 99/214/31 236/215/31 12/216/31 324/217/31 100/218/31 325/219/31 101/220/31 326/221/31 102/222/31 327/223/31 103/224/31 328/225/31 104/226/31 329/227/31 105/228/31 237/229/31 13/230/31 330/231/31 106/232/31 331/233/31 107/234/31 332/235/31 108/236/31 333/237/31 109/238/31 334/239/31 110/240/31 335/241/31 111/242/31 238/243/31 14/244/31 336/245/31 112/246/31 337/247/31 113/248/31 338/249/31 114/250/31 339/251/31 115/252/31 340/253/31 116/254/31 341/255/31 117/256/31 239/257/31 15/258/31 342/259/31 118/260/31 343/261/31 119/262/31 344/263/31 120/264/31 345/265/31 121/266/31 346/267/31 122/268/31 347/269/31 123/270/31 240/271/31 16/272/31 348/273/31 124/274/31 349/275/31 125/276/31 350/277/31 126/278/31 351/279/31 127/280/31 352/281/31 128/282/31 353/283/31 129/284/31 241/285/31 17/286/31 354/287/31 130/288/31 355/289/31 131/290/31 356/291/31 132/292/31 357/293/31 133/294/31 358/295/31 134/296/31 359/297/31 135/298/31 242/299/31 18/300/31 360/301/31 136/302/31 361/303/31 137/304/31 362/305/31 138/306/31 363/307/31 139/308/31 364/309/31 140/310/31 365/311/31 141/312/31 243/313/31 19/314/31 366/315/31 142/316/31 367/317/31 143/318/31 368/319/31 144/320/31 369/321/31 145/322/31 370/323/31 146/324/31 371/325/31 147/326/31 244/327/31 20/328/31 372/329/31 148/330/31 373/331/31 149/332/31 374/333/31 150/334/31 375/335/31 151/336/31 376/337/31 152/338/31 377/339/31 153/340/31 245/341/31 21/342/31 378/343/31 154/344/31 379/345/31 155/346/31 380/347/31 156/348/31 381/349/31 157/350/31 382/351/31 158/352/31 383/353/31 159/354/31 246/355/31 22/356/31 384/357/31 160/358/31 385/359/31 161/360/31 386/361/31 162/362/31 387/363/31 163/364/31 388/365/31 164/366/31 389/367/31 165/368/31 247/369/31 23/370/31 390/371/31 166/372/31 391/373/31 167/374/31 392/375/31 168/376/31 393/377/31 169/378/31 394/379/31 170/380/31 395/381/31 171/382/31 248/383/31 24/384/31 396/385/31 172/386/31 397/387/31 173/388/31 398/389/31 174/390/31 399/391/31 175/392/31 400/393/31 176/394/31 401/395/31 177/396/31 249/397/31 25/398/31 402/399/31 178/400/31 403/401/31 179/402/31 404/403/31 180/404/31 405/405/31 181/406/31 406/407/31 182/408/31 407/409/31 183/410/31 250/411/31 26/412/31 408/413/31 184/414/31 409/415/31 185/416/31 410/417/31 186/418/31 411/419/31 187/420/31 412/421/31 188/422/31 413/423/31 189/424/31 251/425/31 27/426/31 414/427/31 190/428/31 415/429/31 191/430/31 416/431/31 192/432/31 417/433/31 193/434/31 418/435/31 194/436/31 419/437/31 195/438/31 252/439/31 28/440/31 420/441/31 196/442/31 421/443/31 197/444/31 422/445/31 198/446/31 423/447/31 199/448/31 424/449/31 200/450/31 425/451/31 201/452/31 253/453/31 29/454/31 426/455/31 202/456/31 427/457/31 203/458/31 428/459/31 204/460/31 429/461/31 205/462/31 430/463/31 206/464/31 431/465/31 207/466/31 254/467/31 30/468/31 432/469/31 208/470/31 433/471/31 209/472/31 434/473/31 210/474/31 435/475/31 211/476/31 436/477/31 212/478/31 437/479/31 213/480/31 255/481/31 31/482/31 438/483/31 214/484/31 439/485/31 215/486/31 440/487/31 216/488/31 441/489/31 217/490/31 442/491/31 218/492/31 443/493/31 219/494/31 256/495/31 32/496/31 444/497/31 220/498/31 445/499/31 221/500/31 446/501/31 222/502/31 447/503/31 223/504/31 448/505/31 224/506/31 449/507/31 225/508/31 257/509/31
f 31/510/32 33/2/32 438/511/32
f 32/512/33 33/2/33 444/513/33
f 225/514/34 33/2/34 257/515/34
f 224/516/35 33/2/35 449/517/35
f 223/518/36 33/2/36 448/519/36
f 222/520/37 33/2/37 447/521/37
f 221/522/38 33/2/38 446/523/38
f 220/524/39 33/2/39 445/525/39
f 219/526/40 33/2/40 256/527/40
f 218/528/41 33/2/41 443/529/41
f 217/530/42 33/2/42 442/531/42
f 216/532/43 33/2/43 441/533/43
f 215/534/44 33/2/44 440/535/44
f 214/536/45 33/2/45 439/537/45
f 213/538/46 33/2/46 255/539/46
f 212/540/47 33/2/47 437/541/47
f 211/542/48 33/2/48 436/543/48
f 210/544/49 33/2/49 435/545/49
f 209/546/50 33/2/50 434/547/50
f 208/548/51 33/2/51 433/549/51
f 207/550/52 33/2/52 254/551/52
f 206/552/53 33/2/53 431/553/53
f 205/554/54 33/2/54 430/555/54
f 204/556/55 33/2/55 429/557/55
f 203/558/56 33/2/56 428/559/56
f 202/560/57 33/2/57 427/561/57
f 201/562/58 33/2/58 253/563/58
f 200/564/59 33/2/59 425/565/59
f 199/566/60 33/2/60 424/567/60
f 198/568/61 33/2/61 423/569/61
f 197/570/62 33/2/62 422/571/62
f 196/572/63 33/2/63 421/573/63
f 195/574/64 33/2/64 252/575/64
f 194/576/65 33/2/65 419/577/65
f 193/578/66 33/2/66 418/579/66
f 192/580/67 33/2/67 417/581/67
f 191/582/68 33/2/68 416/583/68
f 190/584/69 33/2/69 415/585/69
f 189/586/70 33/2/70 251/587/70
f 188/588/71 33/2/71 413/589/71
f 187/590/72 33/2/72 412/591/72
f 186/592/73 33/2/73 411/593/73
f 185/594/74 33/2/74 410/595/74
f 184/596/75 33/2/75 409/597/75
f 183/598/76 33/2/76 250/599/76
f 182/600/77 33/2/77 407/601/77
f 181/602/78 33/2/78 406/603/78
f 180/604/79 33/2/79 405/605/79
f 179/606/80 33/2/80 404/607/80
f 178/608/81 33/2/81 403/609/81
f 177/610/82 33/2/82 249/611/82
f 176/612/83 33/2/83 401/613/83
f 175/614/84 33/2/84 400/615/84
f 174/616/85 33/2/85 399/617/85
f 173/618/86 33/2/86 398/619/86
f 172/620/87 33/2/87 397/621/87
f 171/622/88 33/2/88 248/623/88
f 170/624/89 33/2/89 395/625/89
f 169/626/90 33/2/90 394/627/90
f 168/628/91 33/2/91 393/629/91
f 167/630/92 33/2/92 392/631/92
f 166/632/93 33/2/93 391/633/93
f 165/634/94 33/2/94 247/635/94
f 164/636/95 33/2/95 389/637/95
f 163/638/96 33/2/96 388/639/96
f 162/640/97 33/2/97 387/641/97
f 161/642/98 33/2/98 386/643/98
f 160/644/99 33/2/99 385/645/99
f 159/646/100 33/2/100 246/647/100
f 158/648/101 33/2/101 383/649/101
f 157/650/102 33/2/102 382/651/102
f 156/652/103 33/2/103 381/653/103
f 155/654/104 33/2/104 380/655/104
f 154/656/105 33/2/105 379/657/105
f 153/658/106 33/2/106 245/659/106
f 152/660/107 33/2/107 377/661/107
f 151/662/108 33/2/108 376/663/108
f 150/664/109 33/2/109 375/665/109
f 149/666/110 33/2/110 374/667/110
f 148/668/111 33/2/111 373/669/111
f 147/670/112 33/2/112 244/671/112
f 146/672/113 33/2/113 371/673/113
f 145/674/114 33/2/114 370/675/114
f 144/676/115 33/2/115 369/677/115
f 143/678/116 33/2/116 368/679/116
f 142/680/117 33/2/117 367/681/117
f 141/682/118 33/2/118 243/683/118
f 140/684/119 33/2/119 365/685/119
f 139/686/120 33/2/120 364/687/120
f 138/688/121 33/2/121 363/689/121
f 137/690/122 33/2/122 362/691/122
f 136/692/123 33/2/123 361/693/123
f 135/694/124 33/2/124 242/695/124
f 134/696/125 33/2/125 359/697/125
f 133/698/126 33/2/126 358/699/126
f 132/700/127 33/2/127 357/701/127
f 131/702/128 33/2/128 356/703/128
f 130/704/129 33/2/129 355/705/129
f 129/706/130 33/2/130 241/707/130
f 128/708/131 33/2/131 353/709/131
f 127/710/132 33/2/132 352/711/132
f 126/712/133 33/2/133 351/713/133
f 125/714/134 33/2/134 350/715/134
f 124/716/135 33/2/135 349/717/135
f 123/718/136 33/2/136 240/719/136
f 122/720/137 33/2/137 347/721/137
f 121/722/138 33/2/138 346/723/138
f 120/724/139 33/2/139 345/725/139
f 119/726/140 33/2/140 344/727/140
f 118/728/141 33/2/141 343/729/141
f 117/730/142 33/2/142 239/731/142
f 116/732/143 33/2/143 341/733/143
f 115/734/144 33/2/144 340/735/144
f 114/736/145 33/2/145 339/737/145
f 113/738/146 33/2/146 338/739/146
f 112/740/147 33/2/147 337/741/147
f 111/742/148 33/2/148 238/743/148
f 110/744/149 33/2/149 335/745/149
f 109/746/150 33/2/150 334/747/150
f 108/748/151 33/2/151 333/749/151
f 107/750/152 33/2/152 332/751/152
f 106/752/153 33/2/153 331/753/153
f 105/754/154 33/2/154 237/755/154
f 104/756/155 33/2/155 329/757/155
f 103/758/156 33/2/156 328/759/156
f 102/760/157 33/2/157 327/761/157
f 101/762/158 33/2/158 326/763/158
f 100/764/159 33/2/159 325/765/159
f 99/766/160 33/2/160 236/767/160
f 98/768/161 33/2/161 323/769/161
f 97/770/162 33/2/162 322/771/162
f 96/772/163 33/2/163 321/773/163
f 95/774/164 33/2/164 320/775/164
f 94/776/165 33/2/165 319/777/165
f 93/778/166 33/2/166 235/779/166
f 92/780/167 33/2/167 317/781/167
f 91/782/168 33/2/168 316/783/168
f 90/784/169 33/2/169 315/785/169
f 89/786/170 33/2/170 314/787/170
f 88/788/171 33/2/171 313/789/171
f 87/790/172 33/2/172 234/791/172
f 86/792/173 33/2/173 311/793/173
f 85/794/174 33/2/174 310/795/174
f 84/796/175 33/2/175 309/797/175
f 83/798/176 33/2/176 308/799/176
f 82/800/177 33/2/177 307/801/177
f 81/802/178 33/2/178 233/803/178
f 80/804/179 33/2/179 305/805/179
f 79/806/180 33/2/180 304/807/180
f 78/808/181 33/2/181 303/809/181
f 77/810/182 33/2/182 302/811/182
f 76/812/183 33/2/183 301/813/183
f 75/814/184 33/2/184 232/815/184
f 74/816/185 33/2/185 299/817/185
f 73/818/186 33/2/186 298/819/186
f 72/820/187 33/2/187 297/821/187
f 71/822/188 33/2/188 296/823/188
f 70/824/189 33/2/189 295/825/189
f 69/826/190 33/2/190 231/827/190
f 68/828/191 33/2/191 293/829/191
f 67/830/192 33/2/192 292/831/192
f 66/832/193 33/2/193 291/833/193
f 65/834/194 33/2/194 290/835/194
f 64/836/195 33/2/195 289/837/195
f 63/838/196 33/2/196 230/839/196
f 62/840/197 33/2/197 287/841/197
f 61/842/198 33/2/198 286/843/198
f 60/844/199 33/2/199 285/845/199
f 59/846/200 33/2/200 284/847/200
f 58/848/201 33/2/201 283/849/201
f 57/850/202 33/2/202 229/851/202
f 56/852/203 33/2/203 281/853/203
f 55/854/204 33/2/204 280/855/204
f 54/856/205 33/2/205 279/857/205
f 53/858/206 33/2/206 278/859/206
f 52/860/207 33/2/207 277/861/207
f 51/862/208 33/2/208 228/863/208
f 50/864/209 33/2/209 275/865/209
f 49/866/210 33/2/210 274/867/210
f 48/868/211 33/2/211 273/869/211
f 47/870/212 33/2/212 272/871/212
f 46/872/213 33/2/213 271/873/213
f 45/874/214 33/2/214 227/875/214
f 44/876/215 33/2/215 269/877/215
f 43/878/216 33/2/216 268/879/216
f 42/880/217 33/2/217 267/881/217
f 41/882/218 33/2/218 266/883/218
f 40/884/219 33/2/219 265/885/219
f 39/886/220 33/2/220 226/887/220
f 38/888/221 33/2/221 263/889/221
f 37/890/222 33/2/222 262/891/222
f 36/892/223 33/2/223 261/893/223
f 35/894/224 33/2/224 260/895/224
f 34/896/225 33/2/225 259/897/225
f 33/2/226 35/894/226 259/897/226
f 33/2/227 36/892/227 260/895/227
f 33/2/223 37/890/223 261/893/223
f 33/2/228 38/888/228 262/891/228
f 33/2/229 39/886/229 263/889/229
f 33/2/230 2/4/230 226/887/230
f 33/2/231 41/882/231 265/885/231
f 33/2/232 42/880/232 266/883/232
f 33/2/217 43/878/217 267/881/217
f 33/2/233 44/876/233 268/879/233
f 33/2/234 45/874/234 269/877/234
f 33/2/235 3/6/235 227/875/235
f 33/2/236 47/870/236 271/873/236
f 33/2/237 48/868/237 272/871/237
f 33/2/211 49/866/211 273/869/211
f 33/2/238 50/864/238 274/867/238
f 33/2/239 51/862/239 275/865/239
f 33/2/240 4/8/240 228/863/240
f 33/2/241 53/858/241 277/861/241
f 33/2/242 54/856/242 278/859/242
f 33/2/205 55/854/205 279/857/205
f 33/2/243 56/852/243 280/855/243
f 33/2/244 57/850/244 281/853/244
f 33/2/245 5/10/245 229/851/245
f 33/2/246 59/846/246 283/849/246
f 33/2/247 60/844/247 284/847/247
f 33/2/199 61/842/199 285/845/199
f 33/2/248 62/840/248 286/843/248
f 33/2/249 63/838/249 287/841/249
f 33/2/250 6/12/250 230/839/250
f 33/2/251 65/834/251 289/837/251
f 33/2/252 66/832/252 290/835/252
f 33/2/193 67/830/193 291/833/193
f 33/2/253 68/828/253 292/831/253
f 33/2/254 69/826/254 293/829/254
f 33/2/255 7/14/255 231/827/255
f 33/2/256 71/822/256 295/825/256
f 33/2/257 72/820/257 296/823/257
f 33/2/187 73/818/187 297/821/187
f 33/2/258 74/816/258 298/819/258
f 33/2/259 75/814/259 299/817/259
f 33/2/260 8/16/260 232/815/260
f 33/2/261 77/810/261 301/813/261
f 33/2/262 78/808/262 302/811/262
f 33/2/181 79/806/181 303/809/181
f 33/2/263 80/804/263 304/807/263
f 33/2/264 81/802/264 305/805/264
f 33/2/265 9/18/265 233/803/265
f 33/2/266 83/798/266 307/801/266
f 33/2/267 84/796/267 308/799/267
f 33/2/175 85/794/175 309/797/175
f 33/2/268 86/792/268 310/795/268
f 33/2/269 87/790/269 311/793/269
f 33/2/270 10/20/270 234/791/270
f 33/2/271 89/786/271 313/789/271
f 33/2/272 90/784/272 314/787/272
f 33/2/169 91/782/169 315/785/169
f 33/2/273 92/780/273 316/783/273
f 33/2/274 93/778/274 317/781/274
f 33/2/275 11/22/275 235/779/275
f 33/2/276 95/774/276 319/777/276
f 33/2/277 96/772/277 320/775/277
f 33/2/163 97/770/163 321/773/163
f 33/2/278 98/768/278 322/771/278
f 33/2/279 99/766/279 323/769/279
f 33/2/280 12/24/280 236/767/280
f 33/2/281 101/762/281 325/765/281
f 33/2/282 102/760/282 326/763/282
f 33/2/157 103/758/157 327/761/157
f 33/2/283 104/756/283 328/759/283
f 33/2/284 105/754/284 329/757/284
f 33/2/285 13/26/285 237/755/285
f 33/2/286 107/750/286 331/753/286
f 33/2/287 108/748/287 332/751/287
f 33/2/151 109/746/151 333/749/151
f 33/2/288 110/744/288 334/747/288
f 33/2/289 111/742/289 335/745/289
f 33/2/290 14/28/290 238/743/290
f 33/2/291 113/738/291 337/741/291
f 33/2/292 114/736/292 338/739/292
f 33/2/145 115/734/145 339/737/145
f 33/2/293 116/732/293 340/735/293
f 33/2/294 117/730/294 341/733/294
f 33/2/295 15/30/295 239/731/295
f 33/2/296 119/726/296 343/729/296
f 33/2/297 120/724/297 344/727/297
f 33/2/139 121/722/139 345/725/139
f 33/2/298 122/720/298 346/723/298
f 33/2/299 123/718/299 347/721/299
f 33/2/300 16/32/300 240/719/300
f 33/2/301 125/714/301 349/717/301
f 33/2/302 126/712/302 350/715/302
f 33/2/133 127/710/133 351/713/133
f 33/2/303 128/708/303 352/711/303
f 33/2/304 129/706/304 353/709/304
f 33/2/305 17/34/305 241/707/305
f 33/2/306 131/702/306 355/705/306
f 33/2/307 132/700/307 356/703/307
f 33/2/127 133/698/127 357/701/127
f 33/2/308 134/696/308 358/699/308
f 33/2/309 135/694/309 359/697/309
f 33/2/310 18/36/310 242/695/310
f 33/2/311 137/690/311 361/693/311
f 33/2/312 138/688/312 362/691/312
f 33/2/121 139/686/121 363/689/121
f 33/2/313 140/684/313 364/687/313
f 33/2/314 141/682/314 365/685/314
f 33/2/315 19/38/315 243/683/315
f 33/2/316 143/678/316 367/681/316
f 33/2/317 144/676/317 368/679/317
f 33/2/115 145/674/115 369/677/115
f 33/2/318 146/672/318 370/675/318
f 33/2/319 147/670/319 371/673/319
f 33/2/320 20/40/320 244/671/320
f 33/2/321 149/666/321 373/669/321
f 33/2/322 150/664/322 374/667/322
f 33/2/109 151/662/109 375/665/109
f 33/2/323 152/660/323 376/663/323
f 33/2/324 153/658/324 377/661/324
f 33/2/325 21/42/325 245/659/325
f 33/2/326 155/654/326 379/657/326
f 33/2/327 156/652/327 380/655/327
f 33/2/103 157/650/103 381/653/103
f 33/2/328 158/648/328 382/651/328
f 33/2/329 159/646/329 383/649/329
f 33/2/330 22/44/330 246/647/330
f 33/2/331 161/642/331 385/645/331
f 33/2/332 162/640/332 386/643/332
f 33/2/97 163/638/97 387/641/97
f 33/2/333 164/636/333 388/639/333
f 33/2/334 165/634/334 389/637/334
f 33/2/335 23/46/335 247/635/335
f 33/2/336 167/630/336 391/633/336
f 33/2/337 168/628/337 392/631/337
f 33/2/91 169/626/91 393/629/91
f 33/2/338 170/624/338 394/627/338
f 33/2/339 171/622/339 395/625/339
f 33/2/340 24/48/340 248/623/340
f 33/2/341 173/618/341 397/621/341
f 33/2/342 174/616/342 398/619/342
f 33/2/85 175/614/85 399/617/85
f 33/2/343 176/612/343 400/615/343
f 33/2/344 177/610/344 401/613/344
f 33/2/345 25/50/345 249/611/345
f 33/2/346 179/606/346 403/609/346
f 33/2/347 180/604/347 404/607/347
f 33/2/79 181/602/79 405/605/79
f 33/2/348 182/600/348 406/603/348
f 33/2/349 183/598/349 407/601/349
f 33/2/350 26/52/350 250/599/350
f 33/2/351 185/594/351 409/597/351
f 33/2/352 186/592/352 410/595/352
f 33/2/73 187/590/73 411/593/73
f 33/2/353 188/588/353 412/591/353
f 33/2/354 189/586/354 413/589/354
f 33/2/355 27/54/355 251/587/355
f 33/2/356 191/582/356 415/585/356
f 33/2/357 192/580/357 416/583/357
f 33/2/67 193/578/67 417/581/67
f 33/2/358 194/576/358 418/579/358
f 33/2/359 195/574/359 419/577/359
f 33/2/360 28/56/360 252/575/360
f 33/2/361 197/570/361 421/573/361
f 33/2/362 198/568/362 422/571/362
f 33/2/61 199/566/61 423/569/61
f 33/2/363 200/564/363 424/567/363
f 33/2/364 201/562/364 425/565/364
f 33/2/365 29/58/365 253/563/365
f 33/2/366 203/558/366 427/561/366
f 33/2/367 204/556/367 428/559/367
f 33/2/55 205/554/55 429/557/55
f 33/2/368 206/552/368 430/555/368
f 33/2/369 207/550/369 431/553/369
f 33/2/370 30/60/370 254/551/370
f 33/2/371 209/546/371 433/549/371
f 33/2/372 210/544/372 434/547/372
f 33/2/49 211/542/49 435/545/49
f 33/2/373 212/540/373 436/543/373
f 33/2/374 213/538/374 437/541/374
f 33/2/375 31/510/375 255/539/375
f 33/2/376 215/534/376 439/537/376
f 33/2/377 216/532/377 440/535/377
f 33/2/43 217/530/43 441/533/43
f 33/2/378 218/528/378 442/531/378
f 33/2/379 219/526/379 443/529/379
f 33/2/380 32/512/380 256/527/380
f 33/2/381 221/522/381 445/525/381
f 33/2/382 222/520/382 446/523/382
f 33/2/37 223/518/37 447/521/37
f 33/2/383 224/516/383 448/519/383
f 33/2/384 225/514/384 449/517/384
f 33/2/385 1/1/385 257/515/385
f 33/2/386 220/524/386 444/513/386
f 33/2/387 214/536/387 438/511/387
f 33/2/388 208/548/388 432/61/388
f 33/2/389 202/560/389 426/59/389
f 33/2/390 196/572/390 420/57/390
f 33/2/391 190/584/391 414/55/391
f 33/2/392 184/596/392 408/53/392
f 33/2/393 178/608/393 402/51/393
f 33/2/394 172/620/394 396/49/394
f 33/2/395 166/632/395 390/47/395
f 33/2/396 160/644/396 384/45/396
f 33/2/397 154/656/397 378/43/397
f 33/2/398 148/668/398 372/41/398
f 33/2/399 142/680/399 366/39/399
f 33/2/400 136/692/400 360/37/400
f 33/2/401 130/704/401 354/35/401
f 33/2/402 124/716/402 348/33/402
f 33/2/403 118/728/403 342/31/403
f 33/2/404 112/740/404 336/29/404
f 33/2/405 106/752/405 330/27/405
f 33/2/406 100/764/406 324/25/406
f 33/2/407 94/776/407 318/23/407
f 33/2/408 88/788/408 312/21/408
f 33/2/409 82/800/409 306/19/409
f 33/2/410 76/812/410 300/17/410
f 33/2/411 70/824/411 294/15/411
f 33/2/412 64/836/412 288/13/412
f 33/2/413 58/848/413 282/11/413
f 33/2/414 52/860/414 276/9/414
f 33/2/415 46/872/415 270/7/415
f 33/2/416 40/884/416 264/5/416
f 33/2/417 34/896/417 258/3/417
