# Blender 4.1.1
# www.blender.org
mtllib plane.mtl
o Cube.002
v -124.364182 -3.466836 119.098938
v -124.364182 -3.466836 119.098938
v -124.364182 -3.466874 -119.098938
v -124.364182 -3.466874 -119.098938
v 124.364182 -3.466836 119.098938
v 124.364182 -3.466836 119.098938
v 124.364182 -3.466874 -119.098938
v 124.364182 -3.466874 -119.098938
vn -0.0000 -0.0000 -0.0000
vn -0.0000 -0.0000 -1.0000
vn -0.0000 1.0000 -0.0000
vn -0.0000 -1.0000 -0.0000
vt 0.375000 0.000000
vt 0.625000 0.000000
vt 0.625000 0.250000
vt 0.375000 0.250000
vt 0.625000 0.500000
vt 0.375000 0.500000
vt 0.625000 0.750000
vt 0.375000 0.750000
vt 0.625000 1.000000
vt 0.375000 1.000000
vt 0.125000 0.500000
vt 0.125000 0.750000
vt 0.875000 0.500000
vt 0.875000 0.750000
s 0
usemtl Material.002
f 1/1/1 2/2/1 4/3/1 3/4/1
f 3/4/2 4/3/3 8/5/2 7/6/3
f 7/6/1 8/5/1 6/7/1 5/8/1
f 5/8/2 6/7/3 2/9/2 1/10/3
f 3/11/4 7/6/4 5/8/4 1/12/4
f 8/5/3 4/13/3 2/14/3 6/7/3
